<?xml version="1.0" encoding="utf-8"?>
<!-- Generator: Adobe Illustrator 19.0.0, SVG Export Plug-In . SVG Version: 6.00 Build 0)  -->
<svg version="1.1" id="Layer_1" xmlns="http://www.w3.org/2000/svg" xmlns:xlink="http://www.w3.org/1999/xlink" x="0px" y="0px"
	 viewBox="0 0 612 612" style="enable-background:new 0 0 612 612;" xml:space="preserve">
<style type="text/css">
	.st0{fill:#3D3D3D;}
	.st1{opacity:0.1;fill:#3D3D3D;enable-background:new    ;}
</style>
<path id="XMLID_1_" class="st0" d="M199.4,415.7L24.9,192.9c-8.7-10-14.5-22.3-16.8-35.4l0,0c-5.9-32.3-2.5-65.6,9.7-96.2l7.7-17.2
	c5-12.5,12.5-23.9,22-33.4l0,0c5-5,13.4-3,15.6,3.7L74,47.3C79.1,62.9,88,77,99.5,88.5L313,302L199.4,415.7z"/>
<path id="XMLID_19_" class="st0" d="M41.4,192.1c-8.7-10-14.5-22.3-16.8-35.4l0,0c-5.9-32.3-2.5-65.6,9.7-96.2l7.6-17.1
	c4.6-11.5,11.4-22.1,19.9-31.2c-3.2-4.7-10.2-5.7-14.5-1.4c-9.5,9.5-17,20.9-22,33.4l-7.7,17.2C5.3,91.8,2,125.2,7.9,157.5l0,0
	c2.3,13.1,8.2,25.3,16.8,35.4l174.5,222.8l9.7-9.7L41.4,192.1z"/>
<path id="XMLID_3_" class="st0" d="M199.4,415.7l222.8,174.5c10,8.7,22.3,14.5,35.4,16.8l0,0c32.3,5.9,65.6,2.5,96.2-9.7l17.2-7.7
	c12.5-5,23.9-12.5,33.4-22l0,0c5-5,3-13.4-3.7-15.6l-32.8-10.9c-15.5-5.1-29.7-14-41.2-25.5L313,302L199.4,415.7z"/>
<path id="XMLID_16_" class="st0" d="M423,573.7c10,8.7,22.3,14.5,35.4,16.8l0,0c32.3,5.9,65.6,2.5,96.2-9.7l17.2-7.7
	c11.5-4.6,22.1-11.4,31.2-19.9c4.7,3.2,5.7,10.2,1.4,14.5c-9.5,9.5-20.9,17-33.4,22l-17.2,7.7c-30.5,12.2-63.9,15.5-96.2,9.7l0,0
	c-13.1-2.3-25.3-8.2-35.4-16.8L199.4,415.8l9.7-9.7L423,573.7z"/>
<path id="XMLID_7_" class="st0" d="M592.2,200.4l-80.1-80.1l-7.1-7.1l-10.3-10.3l-80.1-80.1c-4.2-4.2-11.2-2.5-13.1,3.2l-1.5,4.5
	c-5.4,16.2-2.3,34,8,47.6l42.4,58c3.2,4.1,2.7,9.8-0.9,13.4L333.1,253.3c-2.6,2.6-5.2,5.1-8,7.4l-150,127
	c-20.9,17.7-39.3,38.1-54.8,60.7L96,483.7c-3.8,5.6-5.7,12.2-5.4,18.9c0.1,2.5,1.1,4.8,2.6,6.8l2.6,3.5c1.8,2.4,3.9,4.5,6.3,6.3
	l3.5,2.6c2,1.5,4.4,2.4,6.8,2.6c6.6,0.3,13.4-1.6,18.9-5.4l35.4-24.2c22.6-15.5,42.9-33.9,60.7-54.8l127-150c2.3-2.8,4.8-5.4,7.4-8
	l103.9-116.6c3.6-3.6,9.4-3.9,13.4-0.9l58,42.4c13.6,10.4,31.4,13.4,47.6,8l4.5-1.5C594.7,211.6,596.4,204.5,592.2,200.4z"/>
<path id="XMLID_8_" class="st0" d="M503.5,111.6l-8.7-8.7l-80.1-80.1c-4.2-4.2-11.2-2.5-13.1,3.2l-1.5,4.5c-5.4,16.2-2.3,34,8,47.6
	l42.4,58c3.2,4.1,2.7,9.8-0.9,13.4L333.1,253.3c-2.6,2.6-5.2,5.1-8,7.4l-150,127c-20.9,17.7-39.3,38.1-54.8,60.7L96,483.7
	c-3.8,5.6-5.7,12.2-5.4,18.9c0.1,2.5,1.1,4.8,2.6,6.8l2.6,3.5c0.9,1.2,1.9,2.3,2.9,3.4L503.5,111.6L503.5,111.6z"/>
<path id="XMLID_9_" class="st0" d="M219.9,436.2L219.9,436.2c-7.5-18.7-22.3-33.5-41-41l0,0c0,0-13.8,13.1-22.1,22.1
	s-24.1,30.4-24.1,30.4l2.6,3.1c8.8,10.6,18.5,20.3,29,29l3.1,2.6c0,0,21.4-15.8,30.4-24.1C206.8,450.1,219.9,436.2,219.9,436.2z"/>
<path id="XMLID_6_" class="st0" d="M219.9,436.2l-41-41l-22.1,22.1c-7.8,8.5-22.2,27.9-23.9,30.1l34.7,34.7
	c2.3-1.7,21.7-16.1,30.1-23.9C206.8,450.1,219.9,436.2,219.9,436.2z"/>
<path id="XMLID_4_" class="st0" d="M437.6,177.4L437.6,177.4c-1.7-1.7-2-4.2-0.5-5.7l71.9-67.4l1.5,1.5l-67.4,71.9
	C441.9,179.3,439.3,179.1,437.6,177.4z"/>
<path id="XMLID_12_" class="st0" d="M509.9,105.2l-72.2,72.2c1.7,1.7,4.2,2,5.7,0.5l67.4-71.9C510.7,106,509.9,105.2,509.9,105.2z"
	/>
<path id="XMLID_13_" class="st0" d="M104.9,470.8L96,483.7c-3.8,5.6-5.7,12.2-5.4,18.9c0.1,2.5,1.1,4.8,2.6,6.8l2.6,3.5
	c1.8,2.4,3.9,4.5,6.3,6.3l3.5,2.6c2,1.5,4.4,2.4,6.8,2.6c6.6,0.3,13.4-1.6,18.9-5.4l12.9-8.8L104.9,470.8z"/>
<g id="XMLID_18_">
	<path id="XMLID_40_" class="st1" d="M153.4,421.2l-0.2,6.8l50.4,17.4V420l3.9-3.9c-7.7-9.1-17.5-16.3-28.8-20.8l-22.1,22.1
		C155.7,418.4,154.6,419.7,153.4,421.2z"/>
</g>
<rect id="XMLID_5_" x="154.5" y="424.9" transform="matrix(-0.7071 -0.7071 0.7071 -0.7071 -4.0498 871.4118)" class="st0" width="47.9" height="23.4"/>
<rect id="XMLID_10_" x="169.9" y="453.5" transform="matrix(-0.7071 -0.7071 0.7071 -0.7071 -17.0097 901.9708)" class="st0" width="16.8" height="2"/>
<circle id="XMLID_11_" class="st0" cx="165" cy="428.2" r="3.5"/>
<circle id="XMLID_15_" class="st0" cx="172.2" cy="436.8" r="1.2"/>
</svg>
